<svg version="1.0" xmlns="http://www.w3.org/2000/svg"
 width="100pt" height="100pt" viewBox="0 0 500.000000 500.000000"
 preserveAspectRatio="xMidYMid meet">

<g transform="translate(0.000000,500.000000) scale(0.100000,-0.100000)"
fill="#FFFFFF" stroke="none">
<path d="M2550 2770 l0 -60 1198 2 1197 3 3 58 3 57 -1201 0 -1200 0 0 -60z"/>
<path d="M1097 2786 c-78 -29 -117 -88 -117 -175 0 -95 41 -152 127 -177 87
-25 175 4 223 73 36 52 36 154 0 206 -48 70 -153 103 -233 73z m143 -91 c28
-25 40 -78 29 -121 -22 -77 -126 -97 -181 -34 -45 50 -34 134 23 167 31 17
104 11 129 -12z"/>
<path d="M1635 2785 c-109 -39 -157 -181 -92 -276 44 -65 114 -94 195 -83 151
22 212 207 103 315 -55 56 -129 71 -206 44z m125 -80 c16 -8 34 -24 40 -34 16
-31 12 -103 -8 -127 -67 -84 -191 -42 -192 64 0 53 12 77 48 96 35 20 76 20
112 1z"/>
<path d="M190 2610 l0 -180 45 0 45 0 0 60 0 59 63 3 62 3 0 35 0 35 -62 3
-63 3 0 44 0 45 70 0 70 0 0 35 0 35 -115 0 -115 0 0 -180z"/>
<path d="M590 2610 l0 -180 120 0 120 0 0 40 0 40 -80 0 -80 0 0 140 0 140
-40 0 -40 0 0 -180z"/>
<path d="M2070 2610 l0 -180 93 0 c159 1 237 60 237 180 0 52 -15 89 -53 128
-39 41 -80 52 -189 52 l-88 0 0 -180z m200 90 c54 -29 62 -119 15 -166 -20
-20 -34 -24 -80 -24 l-55 0 0 106 0 107 50 -6 c27 -3 59 -11 70 -17z"/>
<path d="M2674 2586 c-134 -68 -134 -264 0 -333 40 -21 132 -21 171 -1 60 32
105 102 105 164 0 24 -2 24 -100 24 l-100 0 0 -30 c0 -30 1 -30 55 -30 30 0
55 -4 55 -9 0 -5 -14 -21 -31 -35 -60 -51 -147 -25 -168 49 -20 74 27 145 96
145 37 0 73 -15 86 -36 9 -15 97 -20 97 -5 0 21 -49 76 -84 94 -61 32 -122 33
-182 3z"/>
<path d="M3120 2468 c0 -146 10 -178 66 -215 35 -22 118 -22 161 0 59 31 68
56 71 209 l4 138 -40 0 -40 0 -4 -124 c-2 -105 -6 -127 -22 -145 -24 -27 -70
-27 -96 -1 -18 18 -20 33 -20 145 l0 125 -40 0 -40 0 0 -132z"/>
<path d="M3655 2453 c-32 -82 -64 -163 -72 -180 l-13 -33 44 0 c40 0 45 3 55
30 10 30 11 30 85 30 73 0 74 0 85 -30 9 -27 14 -30 50 -30 23 0 41 3 41 8 1
4 -30 85 -67 179 l-68 173 -41 0 -41 0 -58 -147z m139 -61 c7 -21 5 -22 -39
-22 -53 0 -54 3 -19 86 l17 39 17 -40 c9 -22 20 -50 24 -63z"/>
<path d="M4090 2420 l0 -180 45 0 45 0 0 56 c0 54 0 55 27 52 21 -2 34 -15 57
-55 30 -52 31 -53 78 -53 l47 0 -36 60 -35 60 31 35 c36 41 42 96 15 146 -22
44 -67 59 -179 59 l-95 0 0 -180z m192 93 c45 -40 3 -97 -69 -91 l-38 3 -3 53
-3 52 47 0 c30 0 54 -6 66 -17z"/>
<path d="M4560 2419 l0 -181 108 3 c98 4 113 7 150 32 53 35 75 78 75 147 0
127 -70 180 -238 180 l-95 0 0 -181z m223 71 c39 -43 38 -101 -2 -141 -25 -24
-37 -29 -80 -29 l-51 0 0 106 0 107 53 -6 c41 -5 58 -13 80 -37z"/>
<path d="M140 2230 l0 -60 1145 0 1145 0 0 60 0 60 -1145 0 -1145 0 0 -60z"/>
</g>
</svg>
